<svg xmlns="http://www.w3.org/2000/svg" viewBox="0 0 32 32" role="img" aria-label="RetrofitAI">
  <defs>
    <linearGradient id="retrofit-green" x1="0%" y1="0%" x2="100%" y2="100%">
      <stop offset="0%" stop-color="#16A34A" />
      <stop offset="100%" stop-color="#15803D" />
    </linearGradient>
  </defs>
  <rect width="32" height="32" rx="8" fill="url(#retrofit-green)" />
  <g transform="translate(4 4)" fill="none" stroke="#FFFFFF" stroke-width="1.6" stroke-linecap="round" stroke-linejoin="round">
    <path d="m11 17 2 2a1 1 0 1 0 3-3" />
    <path d="m14 14 2.5 2.5a1 1 0 1 0 3-3l-3.88-3.88a3 3 0 0 0-4.24 0l-.88.88a1 1 0 1 1-3-3l2.81-2.81a5.79 5.79 0 0 1 7.06-.87l.47.28a2 2 0 0 0 1.42.25L21 4" />
    <path d="m21 3 1 11h-2" />
    <path d="M3 3 2 14l6.5 6.5a1 1 0 1 0 3-3" />
    <path d="M3 4h8" />
  </g>
</svg>
